<mxfile modified="2023-07-22T02:20:52.821Z" host="app.diagrams.net" agent="Mozilla/5.0 (Macintosh; Intel Mac OS X 10_15_7) AppleWebKit/537.36 (KHTML, like Gecko) Chrome/114.0.0.0 Safari/537.36" etag="10Gs4ich0uOj2YqUCWHA" version="21.6.5" type="device">
  <diagram id="Ht1M8jgEwFfnCIfOTk4-" name="Page-1">
    <mxGraphModel dx="3243" dy="1834" grid="1" gridSize="10" guides="1" tooltips="1" connect="1" arrows="1" fold="1" page="1" pageScale="1" pageWidth="1169" pageHeight="827" math="0" shadow="0">
      <root>
        <mxCell id="0" />
        <mxCell id="1" parent="0" />
        <mxCell id="ci-itc-efS0w71C5WIt4-25" value="VPC" style="points=[[0,0],[0.25,0],[0.5,0],[0.75,0],[1,0],[1,0.25],[1,0.5],[1,0.75],[1,1],[0.75,1],[0.5,1],[0.25,1],[0,1],[0,0.75],[0,0.5],[0,0.25]];outlineConnect=0;gradientColor=none;html=1;whiteSpace=wrap;fontSize=12;fontStyle=0;container=1;pointerEvents=0;collapsible=0;recursiveResize=0;shape=mxgraph.aws4.group;grIcon=mxgraph.aws4.group_vpc;strokeColor=#248814;fillColor=none;verticalAlign=top;align=left;spacingLeft=30;fontColor=#AAB7B8;dashed=0;sketch=0;fontFamily=Helvetica;" vertex="1" parent="1">
          <mxGeometry x="100" y="70" width="690" height="620" as="geometry" />
        </mxCell>
        <mxCell id="ci-itc-efS0w71C5WIt4-28" value="Internet Gateway" style="outlineConnect=0;dashed=0;verticalLabelPosition=bottom;verticalAlign=top;align=center;html=1;shape=mxgraph.aws3.internet_gateway;fillColor=#F58534;gradientColor=none;sketch=0;strokeColor=#ffffff;fontFamily=Helvetica;fontSize=12;fontColor=#232F3E;" vertex="1" parent="ci-itc-efS0w71C5WIt4-25">
          <mxGeometry x="360" y="-20" width="40" height="40" as="geometry" />
        </mxCell>
        <mxCell id="UEzPUAAOIrF-is8g5C7q-74" value="AWS Cloud" style="points=[[0,0],[0.25,0],[0.5,0],[0.75,0],[1,0],[1,0.25],[1,0.5],[1,0.75],[1,1],[0.75,1],[0.5,1],[0.25,1],[0,1],[0,0.75],[0,0.5],[0,0.25]];outlineConnect=0;gradientColor=none;html=1;whiteSpace=wrap;fontSize=12;fontStyle=0;shape=mxgraph.aws4.group;grIcon=mxgraph.aws4.group_aws_cloud_alt;strokeColor=#232F3E;fillColor=none;verticalAlign=top;align=left;spacingLeft=30;fontColor=#232F3E;dashed=0;labelBackgroundColor=#ffffff;container=1;pointerEvents=0;collapsible=0;recursiveResize=0;movable=1;resizable=1;rotatable=1;deletable=1;editable=1;locked=0;connectable=1;" parent="1" vertex="1">
          <mxGeometry x="-100" width="950" height="760" as="geometry" />
        </mxCell>
        <mxCell id="ci-itc-efS0w71C5WIt4-26" value="API Gateway" style="sketch=0;points=[[0,0,0],[0.25,0,0],[0.5,0,0],[0.75,0,0],[1,0,0],[0,1,0],[0.25,1,0],[0.5,1,0],[0.75,1,0],[1,1,0],[0,0.25,0],[0,0.5,0],[0,0.75,0],[1,0.25,0],[1,0.5,0],[1,0.75,0]];outlineConnect=0;fontColor=#232F3E;gradientColor=#FF4F8B;gradientDirection=north;fillColor=#BC1356;strokeColor=#ffffff;dashed=0;verticalLabelPosition=bottom;verticalAlign=top;align=center;html=1;fontSize=12;fontStyle=0;aspect=fixed;shape=mxgraph.aws4.resourceIcon;resIcon=mxgraph.aws4.api_gateway;fontFamily=Helvetica;" vertex="1" parent="UEzPUAAOIrF-is8g5C7q-74">
          <mxGeometry x="100" y="160" width="60" height="60" as="geometry" />
        </mxCell>
        <mxCell id="ci-itc-efS0w71C5WIt4-51" value="" style="endArrow=classic;html=1;rounded=0;fontFamily=Helvetica;fontSize=12;fontColor=#232F3E;" edge="1" parent="UEzPUAAOIrF-is8g5C7q-74">
          <mxGeometry width="50" height="50" relative="1" as="geometry">
            <mxPoint x="-80" y="210" as="sourcePoint" />
            <mxPoint x="90" y="210" as="targetPoint" />
          </mxGeometry>
        </mxCell>
        <mxCell id="ci-itc-efS0w71C5WIt4-29" value="Internet" style="outlineConnect=0;dashed=0;verticalLabelPosition=bottom;verticalAlign=top;align=center;html=1;shape=mxgraph.aws3.internet;fillColor=#D2D3D3;gradientColor=none;sketch=0;strokeColor=#ffffff;fontFamily=Helvetica;fontSize=12;fontColor=#232F3E;" vertex="1" parent="1">
          <mxGeometry x="440" y="-150" width="70" height="70" as="geometry" />
        </mxCell>
        <mxCell id="ci-itc-efS0w71C5WIt4-36" value="Client" style="sketch=0;outlineConnect=0;fontColor=#232F3E;gradientColor=none;strokeColor=#232F3E;fillColor=#ffffff;dashed=0;verticalLabelPosition=bottom;verticalAlign=top;align=center;html=1;fontSize=12;fontStyle=0;aspect=fixed;shape=mxgraph.aws4.resourceIcon;resIcon=mxgraph.aws4.client;fontFamily=Helvetica;" vertex="1" parent="1">
          <mxGeometry x="-250" y="160" width="60" height="60" as="geometry" />
        </mxCell>
        <mxCell id="ci-itc-efS0w71C5WIt4-21" value="Region" style="points=[[0,0],[0.25,0],[0.5,0],[0.75,0],[1,0],[1,0.25],[1,0.5],[1,0.75],[1,1],[0.75,1],[0.5,1],[0.25,1],[0,1],[0,0.75],[0,0.5],[0,0.25]];outlineConnect=0;gradientColor=none;html=1;whiteSpace=wrap;fontSize=12;fontStyle=0;container=1;pointerEvents=0;collapsible=0;recursiveResize=0;shape=mxgraph.aws4.group;grIcon=mxgraph.aws4.group_region;strokeColor=#147EBA;fillColor=none;verticalAlign=top;align=left;spacingLeft=30;fontColor=#147EBA;dashed=1;sketch=0;fontFamily=Helvetica;" vertex="1" parent="1">
          <mxGeometry x="90" y="40" width="720" height="680" as="geometry" />
        </mxCell>
        <mxCell id="ci-itc-efS0w71C5WIt4-16" value="Availability Zone 1a" style="fillColor=none;strokeColor=#147EBA;dashed=1;verticalAlign=top;fontStyle=0;fontColor=#147EBA;whiteSpace=wrap;html=1;sketch=0;fontFamily=Helvetica;fontSize=12;movable=1;resizable=1;rotatable=1;deletable=1;editable=1;locked=0;connectable=1;" vertex="1" parent="ci-itc-efS0w71C5WIt4-21">
          <mxGeometry x="140" y="90" width="240" height="520" as="geometry" />
        </mxCell>
        <mxCell id="ci-itc-efS0w71C5WIt4-10" value="Availability Zone 1c" style="fillColor=none;strokeColor=#147EBA;dashed=1;verticalAlign=top;fontStyle=0;fontColor=#147EBA;whiteSpace=wrap;html=1;sketch=0;fontFamily=Helvetica;fontSize=12;container=0;movable=1;resizable=1;rotatable=1;deletable=1;editable=1;locked=0;connectable=1;" vertex="1" parent="ci-itc-efS0w71C5WIt4-21">
          <mxGeometry x="400" y="90" width="250" height="520" as="geometry" />
        </mxCell>
        <mxCell id="ci-itc-efS0w71C5WIt4-24" style="edgeStyle=orthogonalEdgeStyle;rounded=0;orthogonalLoop=1;jettySize=auto;html=1;exitX=0.5;exitY=1;exitDx=0;exitDy=0;fontFamily=Helvetica;fontSize=12;fontColor=#232F3E;" edge="1" parent="ci-itc-efS0w71C5WIt4-21" source="ci-itc-efS0w71C5WIt4-10" target="ci-itc-efS0w71C5WIt4-10">
          <mxGeometry relative="1" as="geometry" />
        </mxCell>
        <mxCell id="ci-itc-efS0w71C5WIt4-17" value="Public subnet" style="points=[[0,0],[0.25,0],[0.5,0],[0.75,0],[1,0],[1,0.25],[1,0.5],[1,0.75],[1,1],[0.75,1],[0.5,1],[0.25,1],[0,1],[0,0.75],[0,0.5],[0,0.25]];outlineConnect=0;gradientColor=none;html=1;whiteSpace=wrap;fontSize=12;fontStyle=0;container=1;pointerEvents=0;collapsible=0;recursiveResize=0;shape=mxgraph.aws4.group;grIcon=mxgraph.aws4.group_security_group;grStroke=0;strokeColor=#248814;fillColor=#E9F3E6;verticalAlign=top;align=left;spacingLeft=30;fontColor=#248814;dashed=0;sketch=0;fontFamily=Helvetica;" vertex="1" parent="ci-itc-efS0w71C5WIt4-21">
          <mxGeometry x="430" y="130" width="200" height="200" as="geometry" />
        </mxCell>
        <mxCell id="ci-itc-efS0w71C5WIt4-20" value="Private subnet" style="points=[[0,0],[0.25,0],[0.5,0],[0.75,0],[1,0],[1,0.25],[1,0.5],[1,0.75],[1,1],[0.75,1],[0.5,1],[0.25,1],[0,1],[0,0.75],[0,0.5],[0,0.25]];outlineConnect=0;gradientColor=none;html=1;whiteSpace=wrap;fontSize=12;fontStyle=0;container=1;pointerEvents=0;collapsible=0;recursiveResize=0;shape=mxgraph.aws4.group;grIcon=mxgraph.aws4.group_security_group;grStroke=0;strokeColor=#147EBA;fillColor=#E6F2F8;verticalAlign=top;align=left;spacingLeft=30;fontColor=#147EBA;dashed=0;sketch=0;fontFamily=Helvetica;" vertex="1" parent="ci-itc-efS0w71C5WIt4-21">
          <mxGeometry x="430" y="390" width="200" height="200" as="geometry" />
        </mxCell>
        <mxCell id="UEzPUAAOIrF-is8g5C7q-85" value="AWS Lambda" style="outlineConnect=0;fontColor=#232F3E;gradientColor=#F78E04;gradientDirection=north;fillColor=#D05C17;strokeColor=#ffffff;dashed=0;verticalLabelPosition=bottom;verticalAlign=top;align=center;html=1;fontSize=12;fontStyle=0;aspect=fixed;shape=mxgraph.aws4.resourceIcon;resIcon=mxgraph.aws4.lambda;labelBackgroundColor=#ffffff;spacingTop=6;" parent="ci-itc-efS0w71C5WIt4-21" vertex="1">
          <mxGeometry x="360" y="124" width="60" height="60" as="geometry" />
        </mxCell>
        <mxCell id="ci-itc-efS0w71C5WIt4-43" value="" style="endArrow=classic;html=1;rounded=0;fontFamily=Helvetica;fontSize=12;fontColor=#232F3E;entryX=0.5;entryY=0;entryDx=0;entryDy=0;entryPerimeter=0;" edge="1" parent="ci-itc-efS0w71C5WIt4-21">
          <mxGeometry width="50" height="50" relative="1" as="geometry">
            <mxPoint x="400" y="210" as="sourcePoint" />
            <mxPoint x="400" y="360" as="targetPoint" />
            <Array as="points">
              <mxPoint x="400" y="290" />
            </Array>
          </mxGeometry>
        </mxCell>
        <mxCell id="ci-itc-efS0w71C5WIt4-44" value="" style="endArrow=classic;html=1;rounded=0;fontFamily=Helvetica;fontSize=12;fontColor=#232F3E;exitX=1.003;exitY=0.525;exitDx=0;exitDy=0;exitPerimeter=0;" edge="1" parent="ci-itc-efS0w71C5WIt4-21" source="ci-itc-efS0w71C5WIt4-16">
          <mxGeometry width="50" height="50" relative="1" as="geometry">
            <mxPoint x="380" y="340" as="sourcePoint" />
            <mxPoint x="380" y="210" as="targetPoint" />
          </mxGeometry>
        </mxCell>
        <object label="Amazon RDS" id="ci-itc-efS0w71C5WIt4-1">
          <mxCell style="sketch=0;points=[[0,0,0],[0.25,0,0],[0.5,0,0],[0.75,0,0],[1,0,0],[0,1,0],[0.25,1,0],[0.5,1,0],[0.75,1,0],[1,1,0],[0,0.25,0],[0,0.5,0],[0,0.75,0],[1,0.25,0],[1,0.5,0],[1,0.75,0]];outlineConnect=0;fontColor=#000000;gradientColor=#4D72F3;gradientDirection=north;fillColor=#3334B9;strokeColor=#ffffff;dashed=0;verticalLabelPosition=bottom;verticalAlign=top;align=center;html=1;fontSize=12;fontStyle=0;aspect=fixed;shape=mxgraph.aws4.resourceIcon;resIcon=mxgraph.aws4.rds;labelBackgroundColor=default;" vertex="1" parent="ci-itc-efS0w71C5WIt4-21">
            <mxGeometry x="360" y="360" width="60" height="60" as="geometry" />
          </mxCell>
        </object>
        <mxCell id="ci-itc-efS0w71C5WIt4-47" style="edgeStyle=orthogonalEdgeStyle;rounded=0;orthogonalLoop=1;jettySize=auto;html=1;exitX=0.5;exitY=1;exitDx=0;exitDy=0;fontFamily=Helvetica;fontSize=12;fontColor=#232F3E;" edge="1" parent="ci-itc-efS0w71C5WIt4-21" source="ci-itc-efS0w71C5WIt4-16" target="ci-itc-efS0w71C5WIt4-16">
          <mxGeometry relative="1" as="geometry" />
        </mxCell>
        <mxCell id="ci-itc-efS0w71C5WIt4-12" value="Public subnet" style="points=[[0,0],[0.25,0],[0.5,0],[0.75,0],[1,0],[1,0.25],[1,0.5],[1,0.75],[1,1],[0.75,1],[0.5,1],[0.25,1],[0,1],[0,0.75],[0,0.5],[0,0.25]];outlineConnect=0;gradientColor=none;html=1;whiteSpace=wrap;fontSize=12;fontStyle=0;container=1;pointerEvents=0;collapsible=0;recursiveResize=0;shape=mxgraph.aws4.group;grIcon=mxgraph.aws4.group_security_group;grStroke=0;strokeColor=#248814;fillColor=#E9F3E6;verticalAlign=top;align=left;spacingLeft=30;fontColor=#248814;dashed=0;sketch=0;fontFamily=Helvetica;" vertex="1" parent="ci-itc-efS0w71C5WIt4-21">
          <mxGeometry x="150" y="134" width="200" height="200" as="geometry" />
        </mxCell>
        <mxCell id="ci-itc-efS0w71C5WIt4-19" value="Private subnet" style="points=[[0,0],[0.25,0],[0.5,0],[0.75,0],[1,0],[1,0.25],[1,0.5],[1,0.75],[1,1],[0.75,1],[0.5,1],[0.25,1],[0,1],[0,0.75],[0,0.5],[0,0.25]];outlineConnect=0;gradientColor=none;html=1;whiteSpace=wrap;fontSize=12;fontStyle=0;container=1;pointerEvents=0;collapsible=0;recursiveResize=0;shape=mxgraph.aws4.group;grIcon=mxgraph.aws4.group_security_group;grStroke=0;strokeColor=#147EBA;fillColor=#E6F2F8;verticalAlign=top;align=left;spacingLeft=30;fontColor=#147EBA;dashed=0;sketch=0;fontFamily=Helvetica;" vertex="1" parent="ci-itc-efS0w71C5WIt4-21">
          <mxGeometry x="150" y="390" width="200" height="200" as="geometry" />
        </mxCell>
        <mxCell id="ci-itc-efS0w71C5WIt4-52" value="" style="endArrow=classic;html=1;rounded=0;fontFamily=Helvetica;fontSize=12;fontColor=#232F3E;entryX=0.917;entryY=0.085;entryDx=0;entryDy=0;entryPerimeter=0;" edge="1" parent="ci-itc-efS0w71C5WIt4-21" target="ci-itc-efS0w71C5WIt4-16">
          <mxGeometry width="50" height="50" relative="1" as="geometry">
            <mxPoint x="-20" y="134" as="sourcePoint" />
            <mxPoint x="250" y="134" as="targetPoint" />
          </mxGeometry>
        </mxCell>
        <mxCell id="ci-itc-efS0w71C5WIt4-54" value="" style="endArrow=classic;html=1;rounded=0;fontFamily=Helvetica;fontSize=12;fontColor=#232F3E;exitX=0;exitY=0.733;exitDx=0;exitDy=0;exitPerimeter=0;" edge="1" parent="ci-itc-efS0w71C5WIt4-21" source="UEzPUAAOIrF-is8g5C7q-85">
          <mxGeometry width="50" height="50" relative="1" as="geometry">
            <mxPoint x="220" y="170" as="sourcePoint" />
            <mxPoint x="-20" y="169.99666666666647" as="targetPoint" />
          </mxGeometry>
        </mxCell>
        <mxCell id="ci-itc-efS0w71C5WIt4-59" value="" style="endArrow=classic;html=1;rounded=0;fontFamily=Helvetica;fontSize=12;fontColor=#232F3E;" edge="1" parent="ci-itc-efS0w71C5WIt4-21">
          <mxGeometry width="50" height="50" relative="1" as="geometry">
            <mxPoint x="456" y="134" as="sourcePoint" />
            <mxPoint x="410" y="70" as="targetPoint" />
          </mxGeometry>
        </mxCell>
        <mxCell id="ci-itc-efS0w71C5WIt4-60" value="" style="endArrow=classic;html=1;rounded=0;fontFamily=Helvetica;fontSize=12;fontColor=#232F3E;exitX=0.833;exitY=0.077;exitDx=0;exitDy=0;exitPerimeter=0;" edge="1" parent="ci-itc-efS0w71C5WIt4-21" source="ci-itc-efS0w71C5WIt4-16">
          <mxGeometry width="50" height="50" relative="1" as="geometry">
            <mxPoint x="413" y="124" as="sourcePoint" />
            <mxPoint x="367" y="70" as="targetPoint" />
          </mxGeometry>
        </mxCell>
        <mxCell id="ci-itc-efS0w71C5WIt4-56" value="" style="endArrow=classic;html=1;rounded=0;fontFamily=Helvetica;fontSize=12;fontColor=#232F3E;" edge="1" parent="1">
          <mxGeometry width="50" height="50" relative="1" as="geometry">
            <mxPoint x="450" y="110" as="sourcePoint" />
            <mxPoint x="410" y="170" as="targetPoint" />
          </mxGeometry>
        </mxCell>
        <mxCell id="ci-itc-efS0w71C5WIt4-55" value="" style="endArrow=classic;html=1;rounded=0;fontFamily=Helvetica;fontSize=12;fontColor=#232F3E;" edge="1" parent="1" target="ci-itc-efS0w71C5WIt4-17">
          <mxGeometry width="50" height="50" relative="1" as="geometry">
            <mxPoint x="510" y="110" as="sourcePoint" />
            <mxPoint x="530" y="150" as="targetPoint" />
          </mxGeometry>
        </mxCell>
        <mxCell id="ci-itc-efS0w71C5WIt4-53" value="" style="endArrow=classic;html=1;rounded=0;fontFamily=Helvetica;fontSize=12;fontColor=#232F3E;" edge="1" parent="1">
          <mxGeometry width="50" height="50" relative="1" as="geometry">
            <mxPoint x="-10" y="180" as="sourcePoint" />
            <mxPoint x="-180" y="179.99666666666644" as="targetPoint" />
          </mxGeometry>
        </mxCell>
        <mxCell id="ci-itc-efS0w71C5WIt4-58" value="" style="endArrow=classic;html=1;rounded=0;fontFamily=Helvetica;fontSize=12;fontColor=#232F3E;entryX=0.855;entryY=0.145;entryDx=0;entryDy=0;entryPerimeter=0;" edge="1" parent="1" target="ci-itc-efS0w71C5WIt4-28">
          <mxGeometry width="50" height="50" relative="1" as="geometry">
            <mxPoint x="490" y="-60" as="sourcePoint" />
            <mxPoint x="490" y="-40" as="targetPoint" />
          </mxGeometry>
        </mxCell>
        <mxCell id="ci-itc-efS0w71C5WIt4-57" value="" style="endArrow=classic;html=1;rounded=0;fontFamily=Helvetica;fontSize=12;fontColor=#232F3E;" edge="1" parent="1">
          <mxGeometry width="50" height="50" relative="1" as="geometry">
            <mxPoint x="470" y="50" as="sourcePoint" />
            <mxPoint x="470" y="-60" as="targetPoint" />
          </mxGeometry>
        </mxCell>
      </root>
    </mxGraphModel>
  </diagram>
</mxfile>
